<?xml version="1.0" standalone="no"?>
<!DOCTYPE svg PUBLIC "-//W3C//DTD SVG 20010904//EN"
 "http://www.w3.org/TR/2001/REC-SVG-20010904/DTD/svg10.dtd">
<svg version="1.0" xmlns="http://www.w3.org/2000/svg"
 width="256.000000pt" height="256.000000pt" viewBox="0 0 256.000000 256.000000"
 preserveAspectRatio="xMidYMid meet">
<metadata>
Created by potrace 1.16, written by Peter Selinger 2001-2019
</metadata>
<g transform="translate(0.000000,256.000000) scale(0.100000,-0.100000)"
fill="#000000" stroke="none">
<path d="M1210 2027 c-80 -42 -530 -304 -558 -324 -63 -47 -63 -46 -60 -437 3
-341 4 -356 24 -383 13 -17 135 -94 320 -200 321 -186 338 -192 407 -157 116
60 568 328 588 350 l24 26 3 359 c3 398 2 404 -61 445 -17 12 -154 92 -304
178 -236 135 -277 156 -315 156 -24 0 -54 -6 -68 -13z m223 -327 c73 -28 163
-95 204 -152 l33 -46 -96 -56 c-52 -31 -99 -56 -103 -56 -4 0 -17 13 -29 29
-30 41 -103 74 -166 75 -69 1 -138 -34 -179 -92 -26 -36 -32 -54 -35 -112 -4
-60 -1 -75 23 -119 39 -71 91 -104 170 -109 82 -5 129 11 180 63 l41 42 92
-54 c51 -30 92 -60 92 -68 0 -8 -25 -41 -56 -74 -40 -44 -77 -72 -132 -98 -75
-38 -77 -38 -196 -38 -117 0 -123 1 -191 34 -178 87 -286 285 -256 470 29 181
167 332 344 377 69 18 189 10 260 -16z m279 -303 c-3 -23 0 -27 21 -27 19 0
28 8 36 30 5 17 17 30 25 30 11 0 16 -10 16 -30 0 -20 5 -30 15 -30 8 0 15 -9
15 -20 0 -13 -7 -20 -19 -20 -19 0 -31 -18 -31 -46 0 -8 7 -14 15 -14 8 0 15
-9 15 -20 0 -13 -7 -20 -19 -20 -13 0 -20 -9 -24 -30 -5 -22 -12 -30 -27 -30
-17 0 -21 5 -18 28 3 23 -1 27 -22 27 -18 0 -26 -7 -30 -25 -4 -16 -14 -26
-29 -28 -21 -3 -22 -1 -16 27 5 24 3 31 -9 31 -9 0 -16 8 -16 20 0 13 7 20 20
20 16 0 20 7 20 30 0 20 -5 30 -15 30 -8 0 -15 9 -15 20 0 13 7 20 20 20 11 0
23 7 25 15 3 8 7 22 10 31 3 8 13 14 22 12 13 -2 17 -11 15 -31z"/>
</g>
</svg>
