<?xml version="1.0" standalone="no"?>
<!DOCTYPE svg PUBLIC "-//W3C//DTD SVG 20010904//EN"
 "http://www.w3.org/TR/2001/REC-SVG-20010904/DTD/svg10.dtd">
<svg version="1.0" xmlns="http://www.w3.org/2000/svg"
 width="600.000000pt" height="600.000000pt" viewBox="0 0 600.000000 600.000000"
 preserveAspectRatio="xMidYMid meet">
<metadata>
Created by potrace 1.16, written by Peter Selinger 2001-2019
</metadata>
<g transform="translate(0.000000,600.000000) scale(0.100000,-0.100000)"
fill="#000000" stroke="none">
<path d="M2733 5056 c-91 -30 -127 -53 -190 -119 -60 -64 -85 -110 -113 -208
-30 -108 -34 -236 -19 -589 8 -173 14 -336 14 -361 0 -43 -9 -59 -95 -185 -51
-77 -132 -191 -178 -254 -113 -155 -122 -172 -191 -352 -32 -85 -94 -227 -136
-314 -76 -156 -78 -161 -82 -249 -4 -68 -1 -95 10 -109 13 -18 15 -18 60 -1
84 32 140 0 258 -148 84 -103 345 -489 384 -567 62 -123 67 -222 17 -322 -48
-95 -121 -121 -258 -93 -166 34 -840 207 -861 221 -13 8 -23 20 -23 26 0 7 18
42 41 79 61 102 62 144 8 288 -39 106 -41 116 -28 140 15 26 16 26 124 23 168
-5 213 20 244 139 14 50 11 115 -4 112 -5 -1 -22 -32 -37 -70 -44 -108 -87
-133 -233 -133 -92 0 -119 -13 -141 -66 -19 -45 -17 -85 6 -174 26 -98 25
-131 -5 -234 -50 -171 -36 -190 170 -239 61 -15 164 -38 230 -53 66 -14 168
-44 227 -65 60 -21 159 -57 221 -80 96 -35 121 -40 174 -37 54 3 67 9 115 47
188 150 193 151 656 151 220 0 371 -4 382 -10 10 -5 28 -27 41 -47 63 -106
126 -136 284 -137 71 0 110 4 136 16 20 8 83 58 140 110 132 118 169 144 320
219 137 68 256 145 288 185 27 35 27 82 -2 116 -12 14 -61 53 -108 87 -131 91
-170 148 -184 264 -4 39 -11 57 -21 57 -32 0 -38 -134 -9 -220 26 -79 66 -113
165 -143 132 -40 162 -90 98 -162 -40 -46 -72 -62 -238 -120 -157 -55 -166
-60 -325 -180 -80 -61 -136 -96 -168 -104 -98 -28 -205 13 -253 95 -29 50 -29
22 -8 350 5 69 1 116 -15 201 -23 118 -28 274 -10 320 16 43 49 73 81 73 25 0
32 -8 58 -64 53 -111 146 -176 231 -160 70 13 153 67 250 164 121 120 135 153
126 304 -6 115 -44 309 -82 421 -56 169 -109 263 -266 475 -168 228 -324 506
-354 633 -8 34 -24 170 -35 302 -23 278 -33 345 -62 423 -61 164 -203 283
-394 332 -116 30 -332 28 -431 -4z m473 -547 c72 -22 127 -136 128 -264 0 -88
-13 -115 -58 -115 -50 0 -58 16 -39 80 11 38 13 64 7 89 -17 67 -116 104 -173
65 -29 -21 -51 -72 -51 -121 0 -71 42 -107 187 -158 54 -19 104 -43 111 -52
16 -23 15 -54 -4 -139 -22 -93 -15 -125 52 -226 72 -108 97 -163 133 -289 20
-67 60 -162 114 -269 52 -102 88 -188 96 -225 7 -33 15 -139 18 -235 7 -204 9
-210 86 -210 42 0 54 5 82 33 50 50 69 127 62 252 -3 55 -15 134 -27 175 -26
92 -102 240 -186 365 -35 52 -61 95 -58 95 22 0 81 -51 124 -108 60 -80 163
-285 182 -362 19 -79 14 -249 -10 -343 l-19 -78 46 -23 c50 -26 114 -86 76
-72 -113 41 -143 48 -197 43 -77 -7 -129 -33 -150 -77 -25 -52 -35 -60 -73
-60 -24 0 -45 -9 -67 -29 -31 -28 -32 -31 -39 -142 -4 -63 -8 -197 -8 -298 -1
-182 -31 -463 -52 -485 -5 -6 -17 -2 -30 10 -19 17 -20 26 -15 79 3 34 16 94
27 135 21 75 28 167 15 189 -16 25 -46 7 -115 -69 -119 -132 -226 -170 -471
-170 -143 0 -175 8 -238 60 -35 29 -82 41 -82 20 0 -5 13 -24 29 -42 41 -48
51 -71 51 -123 0 -46 -17 -92 -42 -113 -12 -9 -14 -2 -10 47 5 67 -9 100 -93
223 l-53 76 48 33 c54 37 80 74 80 114 0 55 -42 104 -195 225 -119 95 -283
240 -343 304 -71 75 -104 149 -110 247 -4 73 12 160 37 199 16 25 21 6 9 -36
-19 -65 -16 -213 6 -254 24 -47 86 -110 107 -110 24 0 29 20 29 125 0 182 33
325 115 502 24 50 58 113 76 140 32 45 34 54 40 158 6 107 7 113 58 220 30 61
63 138 75 172 13 39 25 60 32 55 5 -4 35 -41 66 -82 81 -111 107 -130 178
-130 52 0 64 4 102 34 88 70 220 158 271 180 59 27 82 49 73 71 -8 22 -30 19
-89 -14 -78 -44 -236 -109 -294 -121 -67 -15 -116 -1 -173 47 l-44 38 129 6
c114 5 137 9 190 33 33 16 107 46 165 67 118 45 150 63 150 85 0 27 -30 28
-58 1 -30 -28 -186 -89 -305 -119 -58 -15 -103 -19 -169 -16 l-90 3 -46 52
c-26 28 -57 56 -69 63 -29 14 -30 58 -3 92 10 14 58 58 105 98 79 67 85 75 85
110 0 111 -84 178 -147 118 -17 -16 -23 -33 -23 -63 0 -43 17 -105 28 -105 4
0 16 -7 26 -15 18 -13 18 -16 2 -40 -9 -14 -23 -25 -32 -25 -25 0 -56 85 -61
171 -9 130 33 206 119 216 82 9 131 -59 144 -200 l7 -74 66 -7 c36 -4 74 -8
84 -9 15 -2 18 8 20 83 4 121 50 207 123 230 31 9 89 5 140 -11z"/>
</g>
</svg>
