<?xml version="1.0" standalone="no"?>
<!DOCTYPE svg PUBLIC "-//W3C//DTD SVG 20010904//EN"
 "http://www.w3.org/TR/2001/REC-SVG-20010904/DTD/svg10.dtd">
<svg version="1.0" xmlns="http://www.w3.org/2000/svg"
 width="256.000000pt" height="256.000000pt" viewBox="0 0 256.000000 256.000000"
 preserveAspectRatio="xMidYMid meet">
<metadata>
Created by potrace 1.16, written by Peter Selinger 2001-2019
</metadata>
<g transform="translate(0.000000,256.000000) scale(0.100000,-0.100000)"
fill="#000000" stroke="none">
<path d="M115 2544 c-81 -42 -115 -102 -115 -202 0 -62 4 -75 33 -118 41 -61
106 -96 177 -96 l51 0 55 -117 55 -116 -23 -14 c-47 -30 -134 -128 -165 -187
-110 -208 -74 -445 95 -612 l63 -63 -33 -59 -33 -60 -61 0 c-81 0 -138 -30
-182 -94 -28 -43 -32 -56 -32 -118 0 -84 17 -126 71 -172 70 -60 152 -71 236
-32 125 58 167 223 84 327 l-29 35 35 63 c27 47 40 61 52 56 138 -54 308 -42
439 31 l64 35 61 -67 c98 -106 95 -95 48 -165 -54 -81 -85 -182 -85 -281 l-1
-77 -88 -20 -88 -20 -37 41 c-71 78 -164 98 -257 54 -27 -13 -60 -34 -72 -47
-53 -58 -69 -168 -34 -244 75 -165 313 -167 395 -3 14 28 26 62 26 74 0 19 11
24 85 43 46 11 86 21 89 21 3 0 21 -31 41 -69 61 -115 173 -212 293 -252 54
-18 82 -20 185 -18 117 4 125 6 201 42 91 43 194 140 238 223 64 119 77 280
33 411 -14 42 -24 77 -23 78 2 2 55 36 118 77 l116 75 30 -23 c39 -31 112 -44
167 -32 60 13 105 45 138 97 25 38 29 55 29 114 0 83 -18 125 -72 171 -75 65
-175 71 -260 17 -74 -47 -114 -136 -98 -220 l7 -40 -119 -77 -118 -76 -42 41
c-22 23 -63 56 -89 73 -35 22 -48 36 -44 48 3 9 48 133 99 276 l94 259 96 -4
c53 -2 118 2 148 9 149 35 284 143 354 284 38 78 39 83 43 202 2 96 -1 134
-14 176 -53 163 -180 290 -343 343 -42 13 -80 16 -176 14 -119 -4 -124 -5
-201 -43 -87 -43 -200 -146 -224 -203 -16 -38 -20 -39 -86 -14 -47 18 -50 21
-57 62 -9 61 -22 91 -57 132 -45 50 -87 67 -169 67 -62 0 -75 -4 -118 -32
-120 -82 -129 -250 -18 -347 46 -41 76 -52 139 -53 60 -1 109 18 158 62 l36
32 53 -20 52 -19 1 -129 c0 -71 4 -136 8 -145 7 -13 -31 -32 -210 -108 -120
-51 -222 -95 -228 -97 -5 -2 -23 16 -38 41 -106 168 -350 262 -547 211 -30 -8
-56 -13 -57 -12 -1 1 -27 54 -56 117 l-54 115 33 38 c82 95 56 247 -55 317
-39 25 -55 29 -115 29 -45 0 -82 -6 -101 -16z m2045 -85 c105 -24 227 -127
275 -232 61 -133 42 -323 -43 -432 l-19 -24 -34 52 c-20 31 -56 66 -86 86 -47
31 -51 37 -38 51 45 50 57 147 26 215 -72 158 -297 167 -379 15 -32 -61 -29
-163 7 -211 l24 -33 -24 -15 c-47 -31 -93 -77 -120 -119 l-28 -44 -26 40
c-145 220 -66 512 171 624 93 44 183 52 294 27z m-1864 -22 c64 -58 55 -152
-19 -198 -77 -48 -187 11 -187 101 0 81 47 129 128 130 34 0 49 -6 78 -33z
m1004 18 c83 -43 79 -180 -6 -220 -43 -20 -83 -19 -121 5 -74 45 -83 139 -19
197 41 38 95 44 146 18z m818 -261 c49 -34 66 -109 37 -164 -32 -62 -129 -80
-184 -35 -90 76 -40 215 78 215 26 0 56 -7 69 -16z m-1396 -325 c223 -47 377
-265 340 -478 -16 -91 -75 -211 -103 -211 -4 0 -11 10 -15 22 -9 31 -90 114
-124 128 l-28 12 24 35 c91 135 -12 325 -175 325 -156 0 -257 -157 -190 -298
13 -27 25 -52 27 -56 2 -4 -9 -13 -25 -21 -36 -19 -101 -84 -120 -120 -14 -27
-16 -28 -33 -12 -27 24 -69 126 -82 197 -22 124 25 263 121 359 105 104 245
147 383 118z m1451 -12 c39 -17 104 -87 113 -123 8 -31 -6 -45 -75 -75 -103
-45 -242 -40 -349 12 -71 35 -72 42 -24 113 44 64 98 86 209 86 56 0 107 -5
126 -13z m-499 -164 c26 -29 70 -67 97 -84 27 -17 49 -34 49 -38 -1 -3 -45
-127 -98 -276 l-98 -270 -101 4 c-117 4 -183 -11 -280 -64 l-62 -34 -76 84
-76 84 40 61 c65 101 84 160 85 275 0 55 -2 116 -7 136 l-7 36 222 95 223 95
20 -25 c11 -15 42 -50 69 -79z m-980 -88 c86 -41 89 -177 5 -221 -64 -33 -148
-3 -175 62 -25 61 0 129 59 158 40 20 71 20 111 1z m48 -337 c50 -15 114 -72
133 -120 l15 -38 -37 -24 c-21 -13 -62 -32 -91 -41 -100 -32 -282 -7 -355 49
-18 14 -18 16 1 58 24 53 68 95 118 113 48 17 163 19 216 3z m1668 -93 c37
-19 60 -63 60 -115 0 -32 -7 -48 -33 -76 -82 -90 -226 -26 -214 96 10 88 105
137 187 95z m-815 -250 c83 -22 147 -60 206 -122 134 -141 156 -344 56 -510
-17 -29 -34 -53 -38 -53 -4 0 -19 20 -34 45 -22 39 -73 86 -123 114 -10 6 -7
17 12 52 19 33 26 58 26 102 0 223 -295 295 -394 96 -35 -70 -34 -122 3 -192
l29 -55 -29 -12 c-33 -14 -114 -97 -123 -128 -11 -32 -20 -27 -54 26 -47 73
-65 150 -60 252 3 74 9 98 38 156 90 184 291 279 485 229z m-1324 -130 c61
-32 84 -105 54 -169 -40 -85 -177 -89 -220 -6 -58 112 56 231 166 175z m1279
-128 c33 -17 70 -74 70 -109 0 -67 -58 -128 -122 -128 -77 0 -128 50 -128 125
0 95 95 155 180 112z m-903 -252 c70 -20 98 -134 48 -193 -51 -61 -132 -66
-186 -13 -46 46 -51 117 -11 169 19 25 87 53 112 47 8 -2 25 -6 37 -10z m980
-100 c39 -18 60 -36 83 -71 16 -27 30 -56 30 -65 0 -12 -23 -29 -67 -51 -64
-31 -73 -33 -178 -33 -112 0 -158 12 -233 61 -21 14 -22 16 -6 52 38 92 109
132 234 132 69 0 95 -5 137 -25z"/>
</g>
</svg>
