<?xml version="1.0" standalone="no"?>
<!DOCTYPE svg PUBLIC "-//W3C//DTD SVG 20010904//EN"
 "http://www.w3.org/TR/2001/REC-SVG-20010904/DTD/svg10.dtd">
<svg version="1.0" xmlns="http://www.w3.org/2000/svg"
 width="256.000000pt" height="256.000000pt" viewBox="0 0 256.000000 256.000000"
 preserveAspectRatio="xMidYMid meet">
<metadata>
Created by potrace 1.16, written by Peter Selinger 2001-2019
</metadata>
<g transform="translate(0.000000,256.000000) scale(0.100000,-0.100000)"
fill="#000000" stroke="none">
<path d="M0 1280 l0 -1280 1280 0 1280 0 0 1280 0 1280 -1280 0 -1280 0 0
-1280z m1535 871 c107 -26 205 -62 314 -116 88 -44 221 -121 231 -135 3 -3 12
-9 20 -12 30 -11 257 -182 308 -232 124 -122 119 -204 -18 -244 -85 -25 -92
-25 -85 0 6 22 5 22 -6 3 -21 -34 -54 -49 -42 -18 5 12 1 11 -15 -5 -30 -30
-57 -30 -42 1 11 21 10 21 -4 3 -9 -11 -16 -23 -16 -26 0 -4 -25 -14 -55 -24
-67 -21 -191 -80 -300 -141 -243 -138 -286 -150 -555 -150 -244 0 -290 11
-460 105 -58 32 -117 64 -132 71 -16 7 -28 18 -28 25 0 7 -6 11 -14 8 -8 -3
-23 3 -33 13 -11 11 -25 17 -31 15 -7 -2 -18 1 -25 6 -15 12 -153 62 -187 68
-14 3 -32 7 -40 11 -8 3 -28 7 -45 9 -62 8 -141 27 -167 40 -41 21 -54 81 -32
140 25 66 144 172 303 269 9 6 18 12 21 15 23 25 133 89 143 84 7 -4 9 -4 5 1
-4 4 7 18 25 30 22 16 34 19 39 11 5 -7 8 -6 8 5 0 17 46 43 61 34 5 -4 9 0 9
8 0 12 19 23 140 76 69 30 202 62 298 71 125 12 313 3 407 -19z m-884 -1426
c45 -69 83 -125 85 -125 2 0 4 41 4 90 0 89 0 90 -25 90 -29 0 -47 28 -34 53
14 24 156 25 166 1 5 -15 7 -15 15 0 6 12 24 16 62 16 l52 0 44 -95 c24 -53
46 -92 50 -88 4 4 24 47 45 96 l38 87 53 0 c43 0 55 -4 64 -20 8 -16 7 -23
-10 -37 -18 -16 -20 -29 -20 -139 0 -127 8 -148 43 -121 13 10 107 222 107
241 0 2 -14 6 -31 8 -36 3 -56 26 -46 52 6 14 20 16 98 14 l91 -3 63 -153 c35
-85 65 -155 67 -156 22 -18 44 -22 69 -12 l29 10 0 122 0 122 -26 6 c-20 5
-25 12 -22 34 l3 27 117 3 c136 3 176 -9 208 -60 24 -40 25 -69 4 -113 -23
-50 -58 -68 -141 -73 l-73 -5 0 -33 c0 -33 1 -34 43 -34 53 0 70 -11 65 -41
-3 -23 -6 -24 -107 -27 -63 -2 -108 1 -116 8 -9 8 -15 8 -20 0 -7 -11 -123
-14 -149 -4 -27 10 -20 53 10 60 16 4 24 12 22 23 -5 24 -171 24 -176 0 -2
-11 6 -19 23 -23 21 -5 26 -12 23 -34 l-3 -27 -147 -3 c-137 -2 -148 -1 -157
17 -13 23 9 51 40 51 17 0 19 8 19 92 0 50 -2 89 -4 87 -2 -2 -19 -39 -36 -81
-30 -72 -35 -78 -62 -78 -27 0 -32 7 -68 83 l-39 82 0 -92 c-1 -85 1 -93 18
-93 31 0 53 -28 40 -51 -9 -17 -19 -19 -81 -17 -56 2 -73 7 -82 21 -9 15 -7
22 12 37 21 17 22 26 22 137 0 103 -2 121 -18 134 -17 15 -21 14 -40 -2 -21
-16 -22 -25 -22 -173 l0 -156 -34 0 c-32 0 -37 6 -120 131 l-86 131 0 -96 c0
-88 2 -96 19 -96 31 0 53 -28 40 -51 -9 -17 -19 -19 -81 -17 -56 2 -73 7 -82
21 -9 15 -7 22 12 37 21 17 22 26 22 138 0 119 0 120 -25 126 -18 5 -25 13
-25 30 0 32 7 36 67 36 l53 0 81 -125z"/>
<path d="M1800 725 l0 -55 58 0 c66 0 102 19 102 55 0 36 -36 55 -102 55 l-58
0 0 -55z"/>
</g>
</svg>
