<?xml version="1.0" standalone="no"?>
<!DOCTYPE svg PUBLIC "-//W3C//DTD SVG 20010904//EN"
 "http://www.w3.org/TR/2001/REC-SVG-20010904/DTD/svg10.dtd">
<svg version="1.0" xmlns="http://www.w3.org/2000/svg"
 width="256.000000pt" height="256.000000pt" viewBox="0 0 256.000000 256.000000"
 preserveAspectRatio="xMidYMid meet">
<metadata>
Created by potrace 1.16, written by Peter Selinger 2001-2019
</metadata>
<g transform="translate(0.000000,256.000000) scale(0.100000,-0.100000)"
fill="#000000" stroke="none">
<path d="M1959 2495 c-135 -98 -179 -118 -293 -130 -43 -5 -65 -13 -82 -30
-23 -23 -24 -30 -24 -160 l0 -135 -452 0 -451 0 -43 -25 c-26 -15 -54 -43 -69
-69 l-26 -44 3 -499 c3 -488 3 -499 25 -545 l22 -48 -247 -235 c-136 -130
-255 -250 -264 -268 -23 -40 -23 -128 -2 -174 27 -56 76 -87 149 -91 46 -3 71
0 98 14 19 11 142 130 272 267 218 228 238 246 258 236 54 -30 126 -39 305
-39 l182 0 0 -40 0 -40 -194 0 -194 0 -66 -89 -66 -88 0 -112 0 -111 720 0
720 0 0 111 0 112 -66 88 -66 89 -194 0 -194 0 0 40 0 40 332 0 331 0 43 25
c26 15 54 43 69 69 l25 43 0 827 0 827 -24 24 c-17 17 -39 25 -82 30 -114 12
-158 32 -293 130 -25 18 -47 25 -81 25 -34 0 -56 -7 -81 -25z m81 -295 l40 0
0 111 0 110 43 -34 c73 -60 153 -92 262 -106 l50 -6 0 -155 c0 -133 -4 -166
-23 -230 -44 -143 -147 -277 -273 -357 l-54 -34 -3 231 -2 230 -40 0 -40 0 -2
-230 -3 -231 -54 34 c-76 48 -167 141 -211 217 -65 110 -82 182 -88 368 l-4
162 39 0 c86 0 212 48 283 108 l35 30 3 -109 3 -109 39 0z m-470 -249 c0 -5 3
-23 6 -40 l7 -31 -427 0 -427 0 -24 -25 c-25 -24 -25 -25 -25 -232 l-1 -208
-39 -45 -40 -45 0 270 c0 296 2 303 59 342 l34 23 438 0 c244 0 439 -4 439 -9z
m61 -193 c37 -74 106 -164 171 -222 60 -55 202 -136 237 -136 25 0 114 44 181
90 l60 41 0 -146 0 -145 -160 0 -160 0 0 -160 0 -160 -204 0 -203 0 4 88 c9
154 -42 289 -151 398 -160 160 -398 199 -596 99 l-50 -25 0 160 0 160 425 0
425 0 21 -42z m794 -1089 c-9 -16 -30 -39 -48 -49 -31 -19 -54 -20 -546 -20
l-514 0 40 29 c21 15 58 50 81 77 l42 49 0 -37 c0 -38 0 -38 40 -38 l40 0 0
40 0 40 -40 0 -40 0 20 40 20 40 396 0 395 0 24 25 25 24 0 365 0 365 38 54
37 54 3 -514 c2 -449 0 -517 -13 -544z m-1280 796 c173 -45 297 -182 328 -359
39 -230 -127 -458 -367 -499 -283 -48 -547 216 -499 499 44 257 293 423 538
359z m1135 -425 l0 -120 -120 0 -120 0 0 120 0 120 120 0 120 0 0 -120z
m-1640 -519 c-49 -53 -154 -163 -233 -246 -139 -145 -145 -150 -185 -150 -64
0 -110 55 -97 117 5 19 78 96 248 258 l242 230 57 -57 57 -56 -89 -96z m1000
-121 l0 -120 -120 0 -120 0 0 120 0 120 120 0 120 0 0 -120z m-320 -80 l0 -40
-195 0 c-107 0 -195 3 -195 6 0 3 12 21 26 40 l26 34 169 0 169 0 0 -40z m764
6 c14 -19 26 -37 26 -40 0 -3 -88 -6 -195 -6 l-195 0 0 40 0 40 169 0 169 0
26 -34z m76 -166 l0 -40 -640 0 -640 0 0 40 0 40 640 0 640 0 0 -40z"/>
<path d="M1000 1680 l0 -40 228 0 c164 0 231 -3 240 -12 7 -7 12 -40 12 -80
l0 -68 40 0 40 0 0 76 c0 85 -15 121 -60 148 -24 14 -64 16 -264 16 l-236 0 0
-40z"/>
<path d="M1560 1324 c0 -111 40 -164 124 -164 35 0 36 1 36 40 0 37 -2 40 -28
40 -43 0 -52 17 -52 92 l0 68 -40 0 -40 0 0 -76z"/>
<path d="M1800 1172 c0 -40 -5 -73 -12 -80 -7 -7 -40 -12 -80 -12 l-68 0 0
-40 0 -40 76 0 c127 0 164 37 164 164 l0 76 -40 0 -40 0 0 -68z"/>
<path d="M945 1386 c-107 -34 -186 -102 -232 -201 -24 -51 -28 -73 -28 -145 0
-72 4 -94 28 -146 130 -282 522 -281 654 1 24 51 28 73 28 145 0 72 -4 94 -28
145 -30 65 -81 124 -138 160 -78 50 -199 68 -284 41z m169 -80 c104 -32 173
-106 197 -212 42 -187 -138 -367 -325 -325 -112 25 -192 105 -217 218 -15 66
-2 135 39 203 l27 45 5 -80 c3 -44 11 -90 18 -102 21 -38 64 -53 147 -53 l75
0 0 40 0 40 -64 0 c-91 0 -97 9 -94 123 l3 91 40 12 c54 17 93 17 149 0z"/>
<path d="M1000 1200 l0 -40 64 0 c85 0 96 -11 96 -96 l0 -64 40 0 40 0 0 75
c0 87 -16 127 -60 150 -18 9 -57 15 -105 15 l-75 0 0 -40z"/>
<path d="M920 880 l0 -40 120 0 120 0 0 40 0 40 -120 0 -120 0 0 -40z"/>
</g>
</svg>
