<?xml version="1.0" standalone="no"?>
<!DOCTYPE svg PUBLIC "-//W3C//DTD SVG 20010904//EN"
 "http://www.w3.org/TR/2001/REC-SVG-20010904/DTD/svg10.dtd">
<svg version="1.0" xmlns="http://www.w3.org/2000/svg"
 width="256.000000pt" height="256.000000pt" viewBox="0 0 256.000000 256.000000"
 preserveAspectRatio="xMidYMid meet">
<metadata>
Created by potrace 1.16, written by Peter Selinger 2001-2019
</metadata>
<g transform="translate(0.000000,256.000000) scale(0.100000,-0.100000)"
fill="#000000" stroke="none">
<path d="M430 1283 l0 -829 27 -27 c59 -55 201 -101 423 -134 166 -25 637 -25
803 0 222 34 358 77 420 135 l27 26 0 829 0 828 -28 -20 c-101 -72 -409 -115
-822 -115 -416 1 -721 43 -822 115 l-28 20 0 -828z m931 106 c111 -24 178
-140 151 -266 -6 -31 -23 -70 -37 -88 l-25 -33 58 -51 57 -51 -71 0 c-62 0
-73 3 -94 25 -20 21 -33 25 -82 25 -136 0 -220 83 -220 215 0 111 57 196 149
221 61 16 53 16 114 3z m-332 -13 c6 -4 11 -25 11 -48 0 -37 -2 -40 -22 -33
-51 15 -113 16 -132 3 -31 -24 -12 -53 57 -86 34 -16 72 -41 85 -54 50 -54 31
-146 -38 -180 -39 -20 -152 -24 -194 -8 -23 8 -26 15 -26 55 0 25 2 45 3 45 2
0 19 -7 37 -17 35 -17 107 -22 128 -9 7 4 12 18 12 31 0 20 -12 31 -69 59 -85
43 -111 74 -111 132 0 81 72 128 186 120 34 -2 67 -7 73 -10z m663 -163 l3
-168 78 -3 78 -3 -3 -37 -3 -37 -122 0 c-68 0 -123 3 -123 8 0 4 0 97 0 207
l0 200 45 0 45 0 2 -167z"/>
<path d="M1262 1297 c-69 -40 -82 -159 -26 -227 21 -24 34 -30 66 -30 80 0
113 45 106 147 -3 51 -9 68 -29 89 -30 29 -85 40 -117 21z"/>
</g>
</svg>
